<?xml version="1.0" encoding="utf-8"?>
<!-- Generator: Adobe Illustrator 27.0.0, SVG Export Plug-In . SVG Version: 6.00 Build 0)  -->
<svg version="1.1" id="countdown" xmlns="http://www.w3.org/2000/svg" xmlns:xlink="http://www.w3.org/1999/xlink" x="0px" y="0px"
	 viewBox="0 0 800 800" style="enable-background:new 0 0 800 800;" xml:space="preserve">
<style type="text/css">
	.st0{fill:none;stroke:#999999;stroke-width:66.6667;stroke-linecap:round;stroke-linejoin:round;stroke-miterlimit:133.3333;}
	.st1{fill:none;stroke:#666666;stroke-width:66.6667;stroke-linecap:round;stroke-linejoin:round;stroke-miterlimit:133.3333;}
	.st2{fill:none;stroke:#CCCCCC;stroke-width:66.6667;stroke-linecap:round;stroke-linejoin:round;stroke-miterlimit:133.3333;}
</style>
<path id="primary" class="st0" d="M666.7,700H133.3c-18.4,0-33.3-14.9-33.3-33.3V300h600v366.7C700,685.1,685.1,700,666.7,700z
	 M700,166.7c0-18.4-14.9-33.3-33.3-33.3H133.3c-18.4,0-33.3,14.9-33.3,33.3V300h600V166.7z"/>
<path id="secondary" class="st1" d="M533.3,100v100 M266.7,100v100"/>
<path id="secondary-2" class="st2" d="M300,566.7c0-73.6,59.7-133.3,133.3-133.3S566.7,493,566.7,566.7"/>
<polyline id="secondary-3" class="st2" points="233.3,466.7 300,566.7 400,533.3 "/>
</svg>
